<?xml version="1.0" encoding="UTF-8"?>
<svg id="Layer_1" xmlns="http://www.w3.org/2000/svg" version="1.1" viewBox="0 0 800 800">
  <!-- Generator: Adobe Illustrator 29.0.1, SVG Export Plug-In . SVG Version: 2.1.0 Build 192)  -->
  <defs>
    <style>
      .st0 {
        fill: #fffdef;
      }
    </style>
  </defs>
  <g>
    <path class="st0" d="M113.46,740.34c89.96-37.05,131.06-145.81,157.79-263.45,25.71-119.85,37.04-248.56,43.88-376.64.78-17.14,1.46-34.29,1.99-51.44.06,8.59.16,17.18.11,25.77-.06,16.78-.4,34.74-.97,51.55-4.07,111.43-14.64,223.9-35.05,329.34-25.81,127.28-68.78,252.1-167.75,284.88h0Z"/>
    <path class="st0" d="M520.76,740.34c-98.97-32.78-141.94-157.6-167.75-284.88-20.41-105.43-30.98-217.9-35.05-329.34-.56-16.79-.91-34.75-.97-51.55-.05-8.59.05-17.18.11-25.77.53,17.16,1.21,34.31,1.99,51.44,6.83,128.07,18.17,256.79,43.88,376.64,26.73,117.63,67.83,226.4,157.79,263.45h0Z"/>
  </g>
  <g>
    <path class="st0" d="M288.04,736.87c81.55-33.05,119.13-129.77,143.57-234.77,23.54-106.93,33.96-222.15,40.33-336.79.73-15.35,1.38-30.7,1.9-46.07.28,19.05.15,38.63-.34,57.72-2.36,84.66-9.85,169.49-22.43,251.32-11.03,68.41-25.95,135.29-50.9,191.58-24.99,55.88-60.01,101.17-112.13,117.01t0,0Z"/>
    <path class="st0" d="M659.65,736.87c-52.12-15.84-87.14-61.13-112.13-117.01-24.95-56.29-39.87-123.17-50.9-191.58-12.58-81.84-20.07-166.67-22.43-251.32-.48-19.06-.62-38.66-.34-57.72.51,15.37,1.16,30.72,1.9,46.07,6.38,114.64,16.79,229.86,40.33,336.79,24.45,105,62.03,201.73,143.57,234.77t0,0Z"/>
  </g>
  <path class="st0" d="M47.19,673.52c43.72-12.01,87.96-22.14,132.56-30.31s90.22-14.49,135.7-18.77c46.17-4.35,92.53-6.67,138.91-6.97,46.77-.31,93.55,1.43,140.17,5.16,47.82,3.83,95.47,9.76,142.77,17.72,5.95,1,11.9,2.04,17.84,3.1-.28-.05-1.29-2.68-2.24-2.84-46.72-8.36-93.77-14.78-141.03-19.14-46.89-4.33-93.97-6.64-141.07-6.88s-92.91,1.54-139.2,5.35c-45.8,3.77-91.43,9.54-136.73,17.3-44.94,7.7-89.54,17.38-133.64,28.99-5.49,1.45-10.98,2.93-16.46,4.43.18-.05,1.65,3.08,2.41,2.87h0Z"/>
</svg>