<?xml version="1.0" encoding="UTF-8"?>
<svg id="Layer_1" xmlns="http://www.w3.org/2000/svg" version="1.1" viewBox="0 0 800 800">
  <!-- Generator: Adobe Illustrator 29.0.1, SVG Export Plug-In . SVG Version: 2.1.0 Build 192)  -->
  <defs>
    <style>
      .st0 {
        fill: #fffdef;
      }
    </style>
  </defs>
  <g>
    <path class="st0" d="M102.96,740.34c91.06-36.79,132.91-145.27,160.11-262.9,26.18-119.82,37.72-248.78,44.65-377.08.79-17.17,1.48-34.35,2.01-51.54.06,8.6.16,17.21.11,25.82-.06,16.8-.42,34.82-1,51.65-4.62,120.15-16.41,241.82-40.84,353.89-26.84,117.89-71.21,230.01-165.03,260.17t0,0Z"/>
    <path class="st0" d="M516.49,740.34c-93.82-30.16-138.19-142.28-165.03-260.17-24.44-112.07-36.22-233.74-40.84-353.89-.57-16.82-.93-34.82-1-51.65-.05-8.61.04-17.22.11-25.82.53,17.19,1.22,34.37,2.01,51.54,6.93,128.3,18.47,257.26,44.65,377.08,27.2,117.63,69.05,226.12,160.11,262.9h0Z"/>
  </g>
  <g>
    <path class="st0" d="M280.21,736.87c76.92-30.3,115.45-116.99,140.6-213.3,24.53-97.83,35.69-205.27,43.4-312.14,2.12-30.65,3.58-61.42,4.64-92.19.27,19.09.14,38.71-.37,57.83-2.31,80.98-9.38,162.08-21.15,240.53-11.01,70.6-25.98,139.8-51.47,198.12-25.53,57.89-61.56,104.92-115.66,121.14t0,0Z"/>
    <path class="st0" d="M657.5,736.87c-54.1-16.23-90.13-63.25-115.66-121.14-25.48-58.33-40.46-127.52-51.47-198.12-11.77-78.45-18.84-159.55-21.15-240.53-.5-19.09-.64-38.74-.37-57.83,1.06,30.77,2.52,61.54,4.64,92.19,7.71,106.87,18.87,214.31,43.41,312.14,25.16,96.31,63.69,183.01,140.6,213.3t0,0Z"/>
  </g>
  <path class="st0" d="M35.66,673.52c44.4-12.02,89.31-22.15,134.58-30.31,45.63-8.23,91.61-14.49,137.77-18.77,46.88-4.35,93.95-6.67,141.03-6.97,47.48-.31,94.98,1.43,142.31,5.16s96.92,9.76,144.96,17.72c6.04,1,12.08,2.04,18.11,3.1-.27-.05-1.3-2.68-2.24-2.84-47.44-8.36-95.21-14.78-143.19-19.14s-95.41-6.64-143.22-6.88c-47.16-.24-94.33,1.53-141.33,5.35-46.49,3.77-92.82,9.54-138.82,17.3-45.62,7.7-90.9,17.37-135.68,28.99-5.58,1.45-11.15,2.93-16.71,4.43.18-.05,1.64,3.08,2.41,2.87h0Z"/>
</svg>